<mxfile host="app.diagrams.net" modified="2021-05-14T13:13:57.481Z" agent="5.0 (Windows NT 10.0; Win64; x64) AppleWebKit/537.36 (KHTML, like Gecko) Chrome/90.0.4430.93 Safari/537.36 OPR/76.0.4017.107" etag="UEdKUhAjGW8gl4OGmTcg" version="14.6.13" type="github">
  <diagram name="Page-1" id="099fd60b-425b-db50-ffb0-6b813814b670">
    <mxGraphModel dx="790" dy="437" grid="1" gridSize="10" guides="1" tooltips="1" connect="1" arrows="1" fold="1" page="1" pageScale="1" pageWidth="850" pageHeight="1100" background="#ffffff" math="0" shadow="0">
      <root>
        <mxCell id="0" />
        <mxCell id="1" parent="0" />
        <mxCell id="vMjLKihC8XHAk1YDZnh0-2" value="" style="rounded=0;whiteSpace=wrap;html=1;" vertex="1" parent="1">
          <mxGeometry x="160" y="110" width="100" height="60" as="geometry" />
        </mxCell>
        <mxCell id="vMjLKihC8XHAk1YDZnh0-3" value="" style="line;strokeWidth=8;html=1;perimeter=backbonePerimeter;points=[];outlineConnect=0;rotation=90;" vertex="1" parent="1">
          <mxGeometry x="151.25" y="126.25" width="60" height="27.5" as="geometry" />
        </mxCell>
        <mxCell id="vMjLKihC8XHAk1YDZnh0-4" value="" style="line;strokeWidth=8;html=1;perimeter=backbonePerimeter;points=[];outlineConnect=0;rotation=0;" vertex="1" parent="1">
          <mxGeometry x="180" y="126.25" width="90" height="27.5" as="geometry" />
        </mxCell>
        <mxCell id="vMjLKihC8XHAk1YDZnh0-6" value="" style="endArrow=none;dashed=1;html=1;" edge="1" parent="1">
          <mxGeometry width="50" height="50" relative="1" as="geometry">
            <mxPoint x="270" y="139.71" as="sourcePoint" />
            <mxPoint x="455" y="140" as="targetPoint" />
          </mxGeometry>
        </mxCell>
        <mxCell id="vMjLKihC8XHAk1YDZnh0-27" value="" style="endArrow=none;html=1;startSize=4;endSize=2;exitX=-0.012;exitY=0.901;exitDx=0;exitDy=0;exitPerimeter=0;entryX=0.093;entryY=0.99;entryDx=0;entryDy=0;entryPerimeter=0;" edge="1" parent="1" source="vMjLKihC8XHAk1YDZnh0-5" target="vMjLKihC8XHAk1YDZnh0-2">
          <mxGeometry width="50" height="50" relative="1" as="geometry">
            <mxPoint x="260" y="200" as="sourcePoint" />
            <mxPoint x="310" y="150" as="targetPoint" />
          </mxGeometry>
        </mxCell>
        <mxCell id="vMjLKihC8XHAk1YDZnh0-28" value="" style="group" vertex="1" connectable="0" parent="1">
          <mxGeometry x="160" y="210.94" width="100" height="69.06" as="geometry" />
        </mxCell>
        <mxCell id="vMjLKihC8XHAk1YDZnh0-12" value="" style="group" vertex="1" connectable="0" parent="vMjLKihC8XHAk1YDZnh0-28">
          <mxGeometry width="100" height="39.06" as="geometry" />
        </mxCell>
        <mxCell id="vMjLKihC8XHAk1YDZnh0-5" value="" style="rounded=0;whiteSpace=wrap;html=1;strokeWidth=1;rotation=90;" vertex="1" parent="vMjLKihC8XHAk1YDZnh0-12">
          <mxGeometry x="30.939999999999998" y="-30.939999999999998" width="38.12" height="100" as="geometry" />
        </mxCell>
        <mxCell id="vMjLKihC8XHAk1YDZnh0-7" value="" style="endArrow=none;html=1;entryX=0;entryY=0.5;entryDx=0;entryDy=0;exitX=1;exitY=0.5;exitDx=0;exitDy=0;" edge="1" parent="vMjLKihC8XHAk1YDZnh0-12" source="vMjLKihC8XHAk1YDZnh0-5" target="vMjLKihC8XHAk1YDZnh0-5">
          <mxGeometry width="50" height="50" relative="1" as="geometry">
            <mxPoint x="7.490000000000009" y="108.12" as="sourcePoint" />
            <mxPoint x="57.49000000000001" y="58.120000000000005" as="targetPoint" />
          </mxGeometry>
        </mxCell>
        <mxCell id="vMjLKihC8XHAk1YDZnh0-9" value="" style="endArrow=classic;html=1;entryX=0.024;entryY=0.083;entryDx=0;entryDy=0;entryPerimeter=0;jumpSize=6;endSize=2;startSize=4;spacingBottom=0;spacing=12;" edge="1" parent="vMjLKihC8XHAk1YDZnh0-12">
          <mxGeometry width="50" height="50" relative="1" as="geometry">
            <mxPoint x="66" y="38.120000000000005" as="sourcePoint" />
            <mxPoint x="85" y="0.9148799999999255" as="targetPoint" />
          </mxGeometry>
        </mxCell>
        <mxCell id="vMjLKihC8XHAk1YDZnh0-10" value="" style="endArrow=classic;html=1;jumpSize=6;endSize=2;startSize=4;spacingBottom=0;spacing=12;" edge="1" parent="vMjLKihC8XHAk1YDZnh0-12">
          <mxGeometry width="50" height="50" relative="1" as="geometry">
            <mxPoint x="83" y="38.120000000000005" as="sourcePoint" />
            <mxPoint x="65" y="1.1200000000000045" as="targetPoint" />
          </mxGeometry>
        </mxCell>
        <mxCell id="vMjLKihC8XHAk1YDZnh0-19" value="" style="endArrow=none;html=1;startSize=4;endSize=2;entryX=0.01;entryY=0.671;entryDx=0;entryDy=0;entryPerimeter=0;exitX=1;exitY=0.5;exitDx=0;exitDy=0;" edge="1" parent="vMjLKihC8XHAk1YDZnh0-12" source="vMjLKihC8XHAk1YDZnh0-20">
          <mxGeometry width="50" height="50" relative="1" as="geometry">
            <mxPoint x="10.100000000000108" y="37.870000000000005" as="sourcePoint" />
            <mxPoint x="9.999999999999972" y="0.2511999999999819" as="targetPoint" />
          </mxGeometry>
        </mxCell>
        <mxCell id="vMjLKihC8XHAk1YDZnh0-20" value="" style="triangle;whiteSpace=wrap;html=1;strokeWidth=1;rotation=-90;" vertex="1" parent="vMjLKihC8XHAk1YDZnh0-28">
          <mxGeometry x="4" y="57.5" width="11.56" height="11.56" as="geometry" />
        </mxCell>
        <mxCell id="vMjLKihC8XHAk1YDZnh0-22" value="" style="triangle;whiteSpace=wrap;html=1;strokeWidth=1;rotation=90;" vertex="1" parent="vMjLKihC8XHAk1YDZnh0-28">
          <mxGeometry x="25" y="57.5" width="11.56" height="11.56" as="geometry" />
        </mxCell>
        <mxCell id="vMjLKihC8XHAk1YDZnh0-23" value="" style="endArrow=none;html=1;startSize=4;endSize=2;entryX=-0.004;entryY=0.69;entryDx=0;entryDy=0;exitX=0;exitY=0.5;exitDx=0;exitDy=0;entryPerimeter=0;" edge="1" parent="vMjLKihC8XHAk1YDZnh0-28" source="vMjLKihC8XHAk1YDZnh0-22" target="vMjLKihC8XHAk1YDZnh0-5">
          <mxGeometry width="50" height="50" relative="1" as="geometry">
            <mxPoint x="19.779999999999973" y="57.25" as="sourcePoint" />
            <mxPoint x="20" y="0.0011999999999829924" as="targetPoint" />
          </mxGeometry>
        </mxCell>
        <mxCell id="vMjLKihC8XHAk1YDZnh0-30" value="" style="edgeStyle=elbowEdgeStyle;elbow=vertical;endArrow=classic;html=1;startSize=4;endSize=2;exitX=0.01;exitY=0.693;exitDx=0;exitDy=0;exitPerimeter=0;entryX=0.5;entryY=1;entryDx=0;entryDy=0;" edge="1" parent="1" source="vMjLKihC8XHAk1YDZnh0-5" target="vMjLKihC8XHAk1YDZnh0-2">
          <mxGeometry width="50" height="50" relative="1" as="geometry">
            <mxPoint x="260" y="230" as="sourcePoint" />
            <mxPoint x="310" y="180" as="targetPoint" />
          </mxGeometry>
        </mxCell>
        <mxCell id="vMjLKihC8XHAk1YDZnh0-31" value="&lt;span style=&quot;font-weight: normal&quot;&gt;&lt;font style=&quot;font-size: 13px&quot;&gt;ИУ-1&lt;/font&gt;&lt;/span&gt;" style="text;strokeColor=none;fillColor=none;html=1;fontSize=24;fontStyle=1;verticalAlign=middle;align=center;" vertex="1" parent="1">
          <mxGeometry x="120" y="80" width="50" height="20" as="geometry" />
        </mxCell>
        <mxCell id="vMjLKihC8XHAk1YDZnh0-32" value="" style="rounded=0;whiteSpace=wrap;html=1;" vertex="1" parent="1">
          <mxGeometry x="170" y="350" width="100" height="60" as="geometry" />
        </mxCell>
        <mxCell id="vMjLKihC8XHAk1YDZnh0-33" value="" style="line;strokeWidth=8;html=1;perimeter=backbonePerimeter;points=[];outlineConnect=0;rotation=90;" vertex="1" parent="1">
          <mxGeometry x="161.25" y="366.25" width="60" height="27.5" as="geometry" />
        </mxCell>
        <mxCell id="vMjLKihC8XHAk1YDZnh0-34" value="" style="line;strokeWidth=8;html=1;perimeter=backbonePerimeter;points=[];outlineConnect=0;rotation=0;" vertex="1" parent="1">
          <mxGeometry x="190" y="366.25" width="90" height="27.5" as="geometry" />
        </mxCell>
        <mxCell id="vMjLKihC8XHAk1YDZnh0-35" value="" style="endArrow=none;dashed=1;html=1;" edge="1" parent="1">
          <mxGeometry width="50" height="50" relative="1" as="geometry">
            <mxPoint x="280" y="379.71000000000004" as="sourcePoint" />
            <mxPoint x="506" y="379.71000000000004" as="targetPoint" />
          </mxGeometry>
        </mxCell>
        <mxCell id="vMjLKihC8XHAk1YDZnh0-36" value="" style="endArrow=none;html=1;startSize=4;endSize=2;exitX=-0.012;exitY=0.901;exitDx=0;exitDy=0;exitPerimeter=0;entryX=0.093;entryY=0.99;entryDx=0;entryDy=0;entryPerimeter=0;" edge="1" parent="1" source="vMjLKihC8XHAk1YDZnh0-39" target="vMjLKihC8XHAk1YDZnh0-32">
          <mxGeometry width="50" height="50" relative="1" as="geometry">
            <mxPoint x="270" y="440" as="sourcePoint" />
            <mxPoint x="320" y="390" as="targetPoint" />
          </mxGeometry>
        </mxCell>
        <mxCell id="vMjLKihC8XHAk1YDZnh0-37" value="" style="group" vertex="1" connectable="0" parent="1">
          <mxGeometry x="170" y="450.94" width="100" height="69.06" as="geometry" />
        </mxCell>
        <mxCell id="vMjLKihC8XHAk1YDZnh0-38" value="" style="group" vertex="1" connectable="0" parent="vMjLKihC8XHAk1YDZnh0-37">
          <mxGeometry width="100" height="39.06" as="geometry" />
        </mxCell>
        <mxCell id="vMjLKihC8XHAk1YDZnh0-39" value="" style="rounded=0;whiteSpace=wrap;html=1;strokeWidth=1;rotation=90;" vertex="1" parent="vMjLKihC8XHAk1YDZnh0-38">
          <mxGeometry x="30.939999999999998" y="-30.939999999999998" width="38.12" height="100" as="geometry" />
        </mxCell>
        <mxCell id="vMjLKihC8XHAk1YDZnh0-40" value="" style="endArrow=none;html=1;entryX=0;entryY=0.5;entryDx=0;entryDy=0;exitX=1;exitY=0.5;exitDx=0;exitDy=0;" edge="1" parent="vMjLKihC8XHAk1YDZnh0-38" source="vMjLKihC8XHAk1YDZnh0-39" target="vMjLKihC8XHAk1YDZnh0-39">
          <mxGeometry width="50" height="50" relative="1" as="geometry">
            <mxPoint x="7.490000000000009" y="108.12" as="sourcePoint" />
            <mxPoint x="57.49000000000001" y="58.120000000000005" as="targetPoint" />
          </mxGeometry>
        </mxCell>
        <mxCell id="vMjLKihC8XHAk1YDZnh0-41" value="" style="endArrow=classic;html=1;entryX=0.024;entryY=0.083;entryDx=0;entryDy=0;entryPerimeter=0;jumpSize=6;endSize=2;startSize=4;spacingBottom=0;spacing=12;" edge="1" parent="vMjLKihC8XHAk1YDZnh0-38">
          <mxGeometry width="50" height="50" relative="1" as="geometry">
            <mxPoint x="66" y="38.120000000000005" as="sourcePoint" />
            <mxPoint x="85" y="0.9148799999999255" as="targetPoint" />
          </mxGeometry>
        </mxCell>
        <mxCell id="vMjLKihC8XHAk1YDZnh0-42" value="" style="endArrow=classic;html=1;jumpSize=6;endSize=2;startSize=4;spacingBottom=0;spacing=12;" edge="1" parent="vMjLKihC8XHAk1YDZnh0-38">
          <mxGeometry width="50" height="50" relative="1" as="geometry">
            <mxPoint x="83" y="38.120000000000005" as="sourcePoint" />
            <mxPoint x="65" y="1.1200000000000045" as="targetPoint" />
          </mxGeometry>
        </mxCell>
        <mxCell id="vMjLKihC8XHAk1YDZnh0-43" value="" style="endArrow=none;html=1;startSize=4;endSize=2;entryX=0.01;entryY=0.671;entryDx=0;entryDy=0;entryPerimeter=0;exitX=1;exitY=0.5;exitDx=0;exitDy=0;" edge="1" parent="vMjLKihC8XHAk1YDZnh0-38" source="vMjLKihC8XHAk1YDZnh0-44">
          <mxGeometry width="50" height="50" relative="1" as="geometry">
            <mxPoint x="10.100000000000108" y="37.870000000000005" as="sourcePoint" />
            <mxPoint x="9.999999999999972" y="0.2511999999999819" as="targetPoint" />
          </mxGeometry>
        </mxCell>
        <mxCell id="vMjLKihC8XHAk1YDZnh0-44" value="" style="triangle;whiteSpace=wrap;html=1;strokeWidth=1;rotation=-90;" vertex="1" parent="vMjLKihC8XHAk1YDZnh0-37">
          <mxGeometry x="4" y="57.5" width="11.56" height="11.56" as="geometry" />
        </mxCell>
        <mxCell id="vMjLKihC8XHAk1YDZnh0-45" value="" style="triangle;whiteSpace=wrap;html=1;strokeWidth=1;rotation=90;" vertex="1" parent="vMjLKihC8XHAk1YDZnh0-37">
          <mxGeometry x="25" y="57.5" width="11.56" height="11.56" as="geometry" />
        </mxCell>
        <mxCell id="vMjLKihC8XHAk1YDZnh0-46" value="" style="endArrow=none;html=1;startSize=4;endSize=2;entryX=-0.004;entryY=0.69;entryDx=0;entryDy=0;exitX=0;exitY=0.5;exitDx=0;exitDy=0;entryPerimeter=0;" edge="1" parent="vMjLKihC8XHAk1YDZnh0-37" source="vMjLKihC8XHAk1YDZnh0-45" target="vMjLKihC8XHAk1YDZnh0-39">
          <mxGeometry width="50" height="50" relative="1" as="geometry">
            <mxPoint x="19.779999999999973" y="57.25" as="sourcePoint" />
            <mxPoint x="20" y="0.0011999999999829924" as="targetPoint" />
          </mxGeometry>
        </mxCell>
        <mxCell id="vMjLKihC8XHAk1YDZnh0-47" value="" style="edgeStyle=elbowEdgeStyle;elbow=vertical;endArrow=classic;html=1;startSize=4;endSize=2;exitX=0.01;exitY=0.693;exitDx=0;exitDy=0;exitPerimeter=0;entryX=0.5;entryY=1;entryDx=0;entryDy=0;" edge="1" parent="1" source="vMjLKihC8XHAk1YDZnh0-39" target="vMjLKihC8XHAk1YDZnh0-32">
          <mxGeometry width="50" height="50" relative="1" as="geometry">
            <mxPoint x="270" y="470" as="sourcePoint" />
            <mxPoint x="320" y="420" as="targetPoint" />
          </mxGeometry>
        </mxCell>
        <mxCell id="vMjLKihC8XHAk1YDZnh0-48" value="&lt;span style=&quot;font-weight: normal&quot;&gt;&lt;font style=&quot;font-size: 13px&quot;&gt;ИУ-1&lt;/font&gt;&lt;/span&gt;" style="text;strokeColor=none;fillColor=none;html=1;fontSize=24;fontStyle=1;verticalAlign=middle;align=center;" vertex="1" parent="1">
          <mxGeometry x="130" y="320" width="50" height="20" as="geometry" />
        </mxCell>
        <mxCell id="vMjLKihC8XHAk1YDZnh0-49" value="" style="group;rotation=90;" vertex="1" connectable="0" parent="1">
          <mxGeometry x="310" y="140" width="87.36111111111111" height="100.5" as="geometry" />
        </mxCell>
        <mxCell id="vMjLKihC8XHAk1YDZnh0-87" value="" style="group" vertex="1" connectable="0" parent="vMjLKihC8XHAk1YDZnh0-49">
          <mxGeometry x="9.861111111111114" y="15.5" width="70" height="85" as="geometry" />
        </mxCell>
        <mxCell id="vMjLKihC8XHAk1YDZnh0-50" value="" style="group;rotation=90;" vertex="1" connectable="0" parent="vMjLKihC8XHAk1YDZnh0-87">
          <mxGeometry x="-7.5000000000000036" y="7.5" width="85" height="70" as="geometry" />
        </mxCell>
        <mxCell id="vMjLKihC8XHAk1YDZnh0-51" value="" style="rounded=0;whiteSpace=wrap;html=1;strokeWidth=1;rotation=180;" vertex="1" parent="vMjLKihC8XHAk1YDZnh0-50">
          <mxGeometry x="26.35" width="32.4" height="70" as="geometry" />
        </mxCell>
        <mxCell id="vMjLKihC8XHAk1YDZnh0-53" value="" style="endArrow=classic;html=1;entryX=0.024;entryY=0.083;entryDx=0;entryDy=0;entryPerimeter=0;jumpSize=6;endSize=2;startSize=4;spacingBottom=0;spacing=12;" edge="1" parent="vMjLKihC8XHAk1YDZnh0-50">
          <mxGeometry width="50" height="50" relative="1" as="geometry">
            <mxPoint x="26" y="45" as="sourcePoint" />
            <mxPoint x="58.752" y="61" as="targetPoint" />
          </mxGeometry>
        </mxCell>
        <mxCell id="vMjLKihC8XHAk1YDZnh0-54" value="" style="endArrow=classic;html=1;jumpSize=6;endSize=2;startSize=4;spacingBottom=0;spacing=12;" edge="1" parent="vMjLKihC8XHAk1YDZnh0-50">
          <mxGeometry width="50" height="50" relative="1" as="geometry">
            <mxPoint x="58.65" y="25" as="sourcePoint" />
            <mxPoint x="26.35" y="25" as="targetPoint" />
          </mxGeometry>
        </mxCell>
        <mxCell id="vMjLKihC8XHAk1YDZnh0-77" value="" style="endArrow=none;html=1;startSize=4;endSize=2;" edge="1" parent="vMjLKihC8XHAk1YDZnh0-50">
          <mxGeometry width="50" height="50" relative="1" as="geometry">
            <mxPoint x="33.15" y="64.99000000000001" as="sourcePoint" />
            <mxPoint x="33.15" y="54.99000000000001" as="targetPoint" />
          </mxGeometry>
        </mxCell>
        <mxCell id="vMjLKihC8XHAk1YDZnh0-80" value="" style="endArrow=none;html=1;startSize=4;endSize=2;" edge="1" parent="vMjLKihC8XHAk1YDZnh0-50">
          <mxGeometry width="50" height="50" relative="1" as="geometry">
            <mxPoint x="26" y="34.900000000000006" as="sourcePoint" />
            <mxPoint x="59" y="34.900000000000006" as="targetPoint" />
          </mxGeometry>
        </mxCell>
        <mxCell id="vMjLKihC8XHAk1YDZnh0-81" value="" style="endArrow=none;html=1;startSize=4;endSize=2;" edge="1" parent="vMjLKihC8XHAk1YDZnh0-50">
          <mxGeometry width="50" height="50" relative="1" as="geometry">
            <mxPoint x="34.95999999999996" y="17" as="sourcePoint" />
            <mxPoint x="35" y="9" as="targetPoint" />
          </mxGeometry>
        </mxCell>
        <mxCell id="vMjLKihC8XHAk1YDZnh0-82" value="" style="endArrow=none;html=1;startSize=4;endSize=2;exitX=1;exitY=0.5;exitDx=0;exitDy=0;" edge="1" parent="vMjLKihC8XHAk1YDZnh0-50">
          <mxGeometry width="50" height="50" relative="1" as="geometry">
            <mxPoint x="26" y="13" as="sourcePoint" />
            <mxPoint x="35" y="13" as="targetPoint" />
          </mxGeometry>
        </mxCell>
        <mxCell id="vMjLKihC8XHAk1YDZnh0-57" value="" style="triangle;whiteSpace=wrap;html=1;strokeWidth=1;rotation=0;" vertex="1" parent="vMjLKihC8XHAk1YDZnh0-50">
          <mxGeometry x="8" y="39.5" width="11.56" height="11.56" as="geometry" />
        </mxCell>
        <mxCell id="vMjLKihC8XHAk1YDZnh0-86" value="" style="endArrow=none;html=1;startSize=4;endSize=2;" edge="1" parent="vMjLKihC8XHAk1YDZnh0-50">
          <mxGeometry width="50" height="50" relative="1" as="geometry">
            <mxPoint x="19.55888888888893" y="45.18000000000001" as="sourcePoint" />
            <mxPoint x="26" y="45.18000000000001" as="targetPoint" />
          </mxGeometry>
        </mxCell>
        <mxCell id="vMjLKihC8XHAk1YDZnh0-106" value="&lt;font style=&quot;font-size: 14px&quot;&gt;x&lt;/font&gt;&lt;font style=&quot;font-size: 11.6667px&quot;&gt;&lt;sub&gt;1&lt;/sub&gt;&lt;/font&gt;" style="text;html=1;align=center;verticalAlign=middle;resizable=0;points=[];autosize=1;strokeColor=none;" vertex="1" parent="vMjLKihC8XHAk1YDZnh0-50">
          <mxGeometry x="54.99888888888893" y="35.28" width="30" height="20" as="geometry" />
        </mxCell>
        <mxCell id="vMjLKihC8XHAk1YDZnh0-107" value="" style="endArrow=none;html=1;startSize=4;endSize=2;entryX=0.7;entryY=0.077;entryDx=0;entryDy=0;entryPerimeter=0;" edge="1" parent="vMjLKihC8XHAk1YDZnh0-50" target="vMjLKihC8XHAk1YDZnh0-106">
          <mxGeometry width="50" height="50" relative="1" as="geometry">
            <mxPoint x="62.99888888888893" y="37.00999999999999" as="sourcePoint" />
            <mxPoint x="164.99888888888893" y="68.00999999999999" as="targetPoint" />
          </mxGeometry>
        </mxCell>
        <mxCell id="vMjLKihC8XHAk1YDZnh0-56" value="" style="triangle;whiteSpace=wrap;html=1;strokeWidth=1;rotation=-180;" vertex="1" parent="vMjLKihC8XHAk1YDZnh0-87">
          <mxGeometry x="0.9999999999999964" y="61.56" width="9.826" height="11.56" as="geometry" />
        </mxCell>
        <mxCell id="vMjLKihC8XHAk1YDZnh0-69" value="&lt;span style=&quot;font-size: 14px ; font-weight: 400&quot;&gt;y&lt;sub&gt;1&lt;/sub&gt;&lt;/span&gt;" style="text;strokeColor=none;fillColor=none;html=1;fontSize=24;fontStyle=1;verticalAlign=middle;align=center;" vertex="1" parent="1">
          <mxGeometry x="120" y="201.8" width="50" height="25.47" as="geometry" />
        </mxCell>
        <mxCell id="vMjLKihC8XHAk1YDZnh0-71" value="&lt;span style=&quot;font-size: 10.0pt ; font-family: &amp;#34;times new roman&amp;#34; , serif&quot;&gt;&lt;br/&gt; &lt;br/&gt; &lt;br/&gt;  &lt;br/&gt;  &lt;br/&gt;  &lt;br/&gt;  &lt;br/&gt;  &lt;br/&gt;  &lt;br/&gt;  &lt;br/&gt;  &lt;br/&gt;  &lt;br/&gt;  &lt;br/&gt;  &lt;br/&gt;  &lt;br/&gt; &lt;br/&gt; &lt;br/&gt; &lt;br/&gt;&lt;br/&gt; &lt;br/&gt;&lt;/span&gt;&lt;span style=&quot;font-size: 10.0pt ; font-family: &amp;#34;times new roman&amp;#34; , serif&quot;&gt;&lt;br/&gt; &lt;br/&gt; &lt;br/&gt;  &lt;br/&gt;  &lt;br/&gt;  &lt;br/&gt;  &lt;br/&gt;  &lt;br/&gt;  &lt;br/&gt;  &lt;br/&gt;  &lt;br/&gt;  &lt;br/&gt;  &lt;br/&gt;  &lt;br/&gt;  &lt;br/&gt; &lt;br/&gt; &lt;br/&gt; &lt;br/&gt;&lt;br/&gt; &lt;br/&gt;&lt;/span&gt;&lt;span style=&quot;font-size: 10.0pt ; font-family: &amp;#34;times new roman&amp;#34; , serif&quot;&gt;&lt;br/&gt; &lt;br/&gt; &lt;br/&gt;  &lt;br/&gt;  &lt;br/&gt;  &lt;br/&gt;  &lt;br/&gt;  &lt;br/&gt;  &lt;br/&gt;  &lt;br/&gt;  &lt;br/&gt;  &lt;br/&gt;  &lt;br/&gt;  &lt;br/&gt;  &lt;br/&gt; &lt;br/&gt; &lt;br/&gt; &lt;br/&gt;&lt;br/&gt; &lt;br/&gt;&lt;/span&gt;" style="text;html=1;align=center;verticalAlign=middle;resizable=0;points=[];autosize=1;strokeColor=none;" vertex="1" parent="1">
          <mxGeometry x="280" y="895.94" width="20" height="850" as="geometry" />
        </mxCell>
        <mxCell id="vMjLKihC8XHAk1YDZnh0-72" value="&lt;font style=&quot;font-size: 14px&quot;&gt;y&lt;sub&gt;1&lt;/sub&gt;&lt;/font&gt;" style="text;html=1;align=center;verticalAlign=middle;resizable=0;points=[];autosize=1;strokeColor=none;" vertex="1" parent="1">
          <mxGeometry x="260" y="207.27" width="30" height="20" as="geometry" />
        </mxCell>
        <mxCell id="vMjLKihC8XHAk1YDZnh0-73" value="" style="endArrow=none;html=1;startSize=4;endSize=2;entryX=0.7;entryY=0.077;entryDx=0;entryDy=0;entryPerimeter=0;" edge="1" parent="1" target="vMjLKihC8XHAk1YDZnh0-72">
          <mxGeometry width="50" height="50" relative="1" as="geometry">
            <mxPoint x="268" y="209" as="sourcePoint" />
            <mxPoint x="370" y="240" as="targetPoint" />
          </mxGeometry>
        </mxCell>
        <mxCell id="vMjLKihC8XHAk1YDZnh0-88" value="" style="group;rotation=90;" vertex="1" connectable="0" parent="1">
          <mxGeometry x="410" y="140" width="87.36111111111111" height="100.5" as="geometry" />
        </mxCell>
        <mxCell id="vMjLKihC8XHAk1YDZnh0-89" value="" style="group" vertex="1" connectable="0" parent="vMjLKihC8XHAk1YDZnh0-88">
          <mxGeometry x="9.861111111111114" y="15.5" width="70" height="85" as="geometry" />
        </mxCell>
        <mxCell id="vMjLKihC8XHAk1YDZnh0-90" value="" style="group;rotation=90;" vertex="1" connectable="0" parent="vMjLKihC8XHAk1YDZnh0-89">
          <mxGeometry x="-7.5000000000000036" y="7.5" width="85" height="70" as="geometry" />
        </mxCell>
        <mxCell id="vMjLKihC8XHAk1YDZnh0-91" value="" style="rounded=0;whiteSpace=wrap;html=1;strokeWidth=1;rotation=180;" vertex="1" parent="vMjLKihC8XHAk1YDZnh0-90">
          <mxGeometry x="26.35" width="32.4" height="70" as="geometry" />
        </mxCell>
        <mxCell id="vMjLKihC8XHAk1YDZnh0-92" value="" style="endArrow=classic;html=1;entryX=0.024;entryY=0.083;entryDx=0;entryDy=0;entryPerimeter=0;jumpSize=6;endSize=2;startSize=4;spacingBottom=0;spacing=12;" edge="1" parent="vMjLKihC8XHAk1YDZnh0-90">
          <mxGeometry width="50" height="50" relative="1" as="geometry">
            <mxPoint x="58.752" y="61" as="sourcePoint" />
            <mxPoint x="26" y="45" as="targetPoint" />
          </mxGeometry>
        </mxCell>
        <mxCell id="vMjLKihC8XHAk1YDZnh0-93" value="" style="endArrow=classic;html=1;jumpSize=6;endSize=2;startSize=4;spacingBottom=0;spacing=12;" edge="1" parent="vMjLKihC8XHAk1YDZnh0-90">
          <mxGeometry width="50" height="50" relative="1" as="geometry">
            <mxPoint x="26.35" y="25" as="sourcePoint" />
            <mxPoint x="58.65" y="25" as="targetPoint" />
          </mxGeometry>
        </mxCell>
        <mxCell id="vMjLKihC8XHAk1YDZnh0-94" value="" style="endArrow=none;html=1;startSize=4;endSize=2;" edge="1" parent="vMjLKihC8XHAk1YDZnh0-90">
          <mxGeometry width="50" height="50" relative="1" as="geometry">
            <mxPoint x="33.15" y="64.99000000000001" as="sourcePoint" />
            <mxPoint x="33.15" y="54.99000000000001" as="targetPoint" />
          </mxGeometry>
        </mxCell>
        <mxCell id="vMjLKihC8XHAk1YDZnh0-95" value="" style="endArrow=none;html=1;startSize=4;endSize=2;" edge="1" parent="vMjLKihC8XHAk1YDZnh0-90">
          <mxGeometry width="50" height="50" relative="1" as="geometry">
            <mxPoint x="26" y="34.900000000000006" as="sourcePoint" />
            <mxPoint x="59" y="34.900000000000006" as="targetPoint" />
          </mxGeometry>
        </mxCell>
        <mxCell id="vMjLKihC8XHAk1YDZnh0-96" value="" style="endArrow=none;html=1;startSize=4;endSize=2;" edge="1" parent="vMjLKihC8XHAk1YDZnh0-90">
          <mxGeometry width="50" height="50" relative="1" as="geometry">
            <mxPoint x="34.95999999999996" y="17" as="sourcePoint" />
            <mxPoint x="35" y="9" as="targetPoint" />
          </mxGeometry>
        </mxCell>
        <mxCell id="vMjLKihC8XHAk1YDZnh0-97" value="" style="endArrow=none;html=1;startSize=4;endSize=2;exitX=1;exitY=0.5;exitDx=0;exitDy=0;" edge="1" parent="vMjLKihC8XHAk1YDZnh0-90">
          <mxGeometry width="50" height="50" relative="1" as="geometry">
            <mxPoint x="26" y="13" as="sourcePoint" />
            <mxPoint x="35" y="13" as="targetPoint" />
          </mxGeometry>
        </mxCell>
        <mxCell id="vMjLKihC8XHAk1YDZnh0-98" value="" style="triangle;whiteSpace=wrap;html=1;strokeWidth=1;rotation=180;" vertex="1" parent="vMjLKihC8XHAk1YDZnh0-90">
          <mxGeometry x="8" y="39.5" width="11.56" height="11.56" as="geometry" />
        </mxCell>
        <mxCell id="vMjLKihC8XHAk1YDZnh0-99" value="" style="endArrow=none;html=1;startSize=4;endSize=2;" edge="1" parent="vMjLKihC8XHAk1YDZnh0-90">
          <mxGeometry width="50" height="50" relative="1" as="geometry">
            <mxPoint x="19.55888888888893" y="45.18000000000001" as="sourcePoint" />
            <mxPoint x="26" y="45.18000000000001" as="targetPoint" />
          </mxGeometry>
        </mxCell>
        <mxCell id="vMjLKihC8XHAk1YDZnh0-108" value="&lt;font style=&quot;color: rgb(0, 0, 0); font-family: helvetica; font-style: normal; font-weight: 400; letter-spacing: normal; text-align: center; text-indent: 0px; text-transform: none; word-spacing: 0px; background-color: rgb(248, 249, 250); font-size: 14px;&quot;&gt;x&lt;/font&gt;&lt;font style=&quot;color: rgb(0, 0, 0); font-family: helvetica; font-style: normal; font-weight: 400; letter-spacing: normal; text-align: center; text-indent: 0px; text-transform: none; word-spacing: 0px; background-color: rgb(248, 249, 250); font-size: 11.6667px;&quot;&gt;&lt;sub&gt;1&lt;/sub&gt;&lt;/font&gt;" style="text;whiteSpace=wrap;html=1;" vertex="1" parent="vMjLKihC8XHAk1YDZnh0-90">
          <mxGeometry x="64.99888888888893" y="31.060000000000002" width="20" height="20" as="geometry" />
        </mxCell>
        <mxCell id="vMjLKihC8XHAk1YDZnh0-100" value="" style="triangle;whiteSpace=wrap;html=1;strokeWidth=1;rotation=0;" vertex="1" parent="vMjLKihC8XHAk1YDZnh0-89">
          <mxGeometry x="0.9999999999999964" y="61.56" width="9.826" height="11.56" as="geometry" />
        </mxCell>
        <mxCell id="vMjLKihC8XHAk1YDZnh0-101" value="" style="endArrow=none;html=1;startSize=4;endSize=2;exitX=1;exitY=0.5;exitDx=0;exitDy=0;" edge="1" parent="vMjLKihC8XHAk1YDZnh0-89" source="vMjLKihC8XHAk1YDZnh0-100">
          <mxGeometry width="50" height="50" relative="1" as="geometry">
            <mxPoint x="-33" y="52.49000000000001" as="sourcePoint" />
            <mxPoint x="25.65" y="67.5" as="targetPoint" />
          </mxGeometry>
        </mxCell>
        <mxCell id="vMjLKihC8XHAk1YDZnh0-102" value="" style="endArrow=none;html=1;startSize=4;endSize=2;exitX=0.5;exitY=1;exitDx=0;exitDy=0;" edge="1" parent="1" source="vMjLKihC8XHAk1YDZnh0-51">
          <mxGeometry width="50" height="50" relative="1" as="geometry">
            <mxPoint x="390" y="210" as="sourcePoint" />
            <mxPoint x="355" y="140" as="targetPoint" />
          </mxGeometry>
        </mxCell>
        <mxCell id="vMjLKihC8XHAk1YDZnh0-103" value="" style="endArrow=none;html=1;startSize=4;endSize=2;exitX=0.5;exitY=1;exitDx=0;exitDy=0;" edge="1" parent="1" source="vMjLKihC8XHAk1YDZnh0-91">
          <mxGeometry width="50" height="50" relative="1" as="geometry">
            <mxPoint x="480.0011111111112" y="140" as="sourcePoint" />
            <mxPoint x="455" y="140" as="targetPoint" />
          </mxGeometry>
        </mxCell>
        <mxCell id="vMjLKihC8XHAk1YDZnh0-105" value="" style="endArrow=none;html=1;startSize=4;endSize=2;entryX=0;entryY=0.5;entryDx=0;entryDy=0;" edge="1" parent="1" target="vMjLKihC8XHAk1YDZnh0-56">
          <mxGeometry width="50" height="50" relative="1" as="geometry">
            <mxPoint x="345" y="223" as="sourcePoint" />
            <mxPoint x="400" y="180" as="targetPoint" />
          </mxGeometry>
        </mxCell>
      </root>
    </mxGraphModel>
  </diagram>
</mxfile>
